<mxfile host="app.diagrams.net" modified="2021-05-07T00:47:37.353Z" agent="5.0 (Windows NT 10.0; Win64; x64) AppleWebKit/537.36 (KHTML, like Gecko) Chrome/90.0.4430.93 Safari/537.36" etag="Wm1nM3-9ljD8QzmqwreS" version="14.6.10" type="github">
  <diagram id="gyNgpG07HMaeRzGiWSaj" name="Page-1">
    <mxGraphModel dx="1102" dy="582" grid="1" gridSize="10" guides="1" tooltips="1" connect="1" arrows="1" fold="1" page="1" pageScale="1" pageWidth="850" pageHeight="1100" math="0" shadow="0">
      <root>
        <mxCell id="0" />
        <mxCell id="1" parent="0" />
        <mxCell id="OhJsWhGwU4XOWmIwv3Eu-1" value="Movie App&amp;nbsp;" style="rounded=0;whiteSpace=wrap;html=1;" vertex="1" parent="1">
          <mxGeometry x="50" y="10" width="730" height="60" as="geometry" />
        </mxCell>
        <mxCell id="OhJsWhGwU4XOWmIwv3Eu-2" value="Header&amp;nbsp;&lt;br&gt;Movies To Watch, Movies I&#39;ve Seen" style="rounded=0;whiteSpace=wrap;html=1;" vertex="1" parent="1">
          <mxGeometry x="100" y="90" width="650" height="60" as="geometry" />
        </mxCell>
        <mxCell id="OhJsWhGwU4XOWmIwv3Eu-3" value="Components" style="swimlane;fillColor=#fff2cc;strokeColor=#d6b656;" vertex="1" parent="1">
          <mxGeometry x="40" y="140" width="790" height="410" as="geometry" />
        </mxCell>
        <mxCell id="OhJsWhGwU4XOWmIwv3Eu-4" value="Movies I Need to Watch" style="rounded=0;whiteSpace=wrap;html=1;fillColor=#e1d5e7;strokeColor=#9673a6;" vertex="1" parent="OhJsWhGwU4XOWmIwv3Eu-3">
          <mxGeometry x="40" y="30" width="260" height="60" as="geometry" />
        </mxCell>
        <mxCell id="OhJsWhGwU4XOWmIwv3Eu-5" value="Title" style="rounded=0;whiteSpace=wrap;html=1;fillColor=#e1d5e7;strokeColor=#9673a6;" vertex="1" parent="OhJsWhGwU4XOWmIwv3Eu-3">
          <mxGeometry x="50" y="90" width="120" height="30" as="geometry" />
        </mxCell>
        <mxCell id="OhJsWhGwU4XOWmIwv3Eu-6" value="Movies I&#39;ve Seen" style="rounded=0;whiteSpace=wrap;html=1;fillColor=#d5e8d4;strokeColor=#82b366;" vertex="1" parent="OhJsWhGwU4XOWmIwv3Eu-3">
          <mxGeometry x="390" y="30" width="355" height="60" as="geometry" />
        </mxCell>
        <mxCell id="OhJsWhGwU4XOWmIwv3Eu-7" value="Title" style="rounded=0;whiteSpace=wrap;html=1;fillColor=#d5e8d4;strokeColor=#82b366;" vertex="1" parent="OhJsWhGwU4XOWmIwv3Eu-3">
          <mxGeometry x="430" y="90" width="120" height="30" as="geometry" />
        </mxCell>
        <mxCell id="OhJsWhGwU4XOWmIwv3Eu-10" value="My Rating" style="rounded=0;whiteSpace=wrap;html=1;fillColor=#d5e8d4;strokeColor=#82b366;" vertex="1" parent="OhJsWhGwU4XOWmIwv3Eu-3">
          <mxGeometry x="430" y="120" width="120" height="30" as="geometry" />
        </mxCell>
        <mxCell id="OhJsWhGwU4XOWmIwv3Eu-11" value="Movie Model" style="rounded=0;whiteSpace=wrap;html=1;fillColor=#fff2cc;strokeColor=#d6b656;" vertex="1" parent="OhJsWhGwU4XOWmIwv3Eu-3">
          <mxGeometry x="230" y="140" width="140" height="40" as="geometry" />
        </mxCell>
        <mxCell id="OhJsWhGwU4XOWmIwv3Eu-12" value="Title" style="rounded=0;whiteSpace=wrap;html=1;fillColor=#fff2cc;strokeColor=#d6b656;" vertex="1" parent="OhJsWhGwU4XOWmIwv3Eu-3">
          <mxGeometry x="300" y="180" width="120" height="40" as="geometry" />
        </mxCell>
        <mxCell id="OhJsWhGwU4XOWmIwv3Eu-13" value="Release Year" style="rounded=0;whiteSpace=wrap;html=1;fillColor=#fff2cc;strokeColor=#d6b656;" vertex="1" parent="OhJsWhGwU4XOWmIwv3Eu-3">
          <mxGeometry x="300" y="230" width="120" height="20" as="geometry" />
        </mxCell>
        <mxCell id="OhJsWhGwU4XOWmIwv3Eu-14" value="Actors" style="rounded=0;whiteSpace=wrap;html=1;fillColor=#fff2cc;strokeColor=#d6b656;" vertex="1" parent="OhJsWhGwU4XOWmIwv3Eu-3">
          <mxGeometry x="300" y="250" width="120" height="20" as="geometry" />
        </mxCell>
        <mxCell id="OhJsWhGwU4XOWmIwv3Eu-15" value="Summary" style="rounded=0;whiteSpace=wrap;html=1;fillColor=#fff2cc;strokeColor=#d6b656;" vertex="1" parent="OhJsWhGwU4XOWmIwv3Eu-3">
          <mxGeometry x="300" y="210" width="120" height="20" as="geometry" />
        </mxCell>
        <mxCell id="OhJsWhGwU4XOWmIwv3Eu-16" value="MPAA Rating" style="rounded=0;whiteSpace=wrap;html=1;fillColor=#fff2cc;strokeColor=#d6b656;" vertex="1" parent="OhJsWhGwU4XOWmIwv3Eu-3">
          <mxGeometry x="300" y="270" width="120" height="20" as="geometry" />
        </mxCell>
        <mxCell id="OhJsWhGwU4XOWmIwv3Eu-17" value="Genre" style="rounded=0;whiteSpace=wrap;html=1;fillColor=#fff2cc;strokeColor=#d6b656;" vertex="1" parent="OhJsWhGwU4XOWmIwv3Eu-3">
          <mxGeometry x="300" y="290" width="120" height="20" as="geometry" />
        </mxCell>
        <mxCell id="OhJsWhGwU4XOWmIwv3Eu-18" value="Image Link" style="rounded=0;whiteSpace=wrap;html=1;fillColor=#fff2cc;strokeColor=#d6b656;" vertex="1" parent="OhJsWhGwU4XOWmIwv3Eu-3">
          <mxGeometry x="200" y="180" width="100" height="50" as="geometry" />
        </mxCell>
        <mxCell id="OhJsWhGwU4XOWmIwv3Eu-19" value="Image Link" style="rounded=0;whiteSpace=wrap;html=1;fillColor=#e1d5e7;strokeColor=#9673a6;" vertex="1" parent="OhJsWhGwU4XOWmIwv3Eu-3">
          <mxGeometry x="50" y="120" width="120" height="50" as="geometry" />
        </mxCell>
        <mxCell id="OhJsWhGwU4XOWmIwv3Eu-21" value="Image Link" style="rounded=0;whiteSpace=wrap;html=1;fillColor=#d5e8d4;strokeColor=#82b366;" vertex="1" parent="OhJsWhGwU4XOWmIwv3Eu-3">
          <mxGeometry x="430" y="150" width="120" height="50" as="geometry" />
        </mxCell>
        <mxCell id="OhJsWhGwU4XOWmIwv3Eu-23" value="Inputs" style="rounded=0;whiteSpace=wrap;html=1;fillColor=#e1d5e7;strokeColor=#9673a6;" vertex="1" parent="OhJsWhGwU4XOWmIwv3Eu-3">
          <mxGeometry y="190" width="120" height="30" as="geometry" />
        </mxCell>
        <mxCell id="OhJsWhGwU4XOWmIwv3Eu-27" value="Platform" style="shape=step;perimeter=stepPerimeter;whiteSpace=wrap;html=1;fixedSize=1;size=-20;fillColor=#e1d5e7;strokeColor=#9673a6;" vertex="1" parent="OhJsWhGwU4XOWmIwv3Eu-3">
          <mxGeometry y="250" width="120" height="20" as="geometry" />
        </mxCell>
        <mxCell id="OhJsWhGwU4XOWmIwv3Eu-28" value="Title" style="shape=step;perimeter=stepPerimeter;whiteSpace=wrap;html=1;fixedSize=1;size=-20;fillColor=#e1d5e7;strokeColor=#9673a6;" vertex="1" parent="OhJsWhGwU4XOWmIwv3Eu-3">
          <mxGeometry y="230" width="120" height="20" as="geometry" />
        </mxCell>
        <mxCell id="OhJsWhGwU4XOWmIwv3Eu-29" value="Dropdown" style="rounded=0;whiteSpace=wrap;html=1;fillColor=#d5e8d4;strokeColor=#82b366;" vertex="1" parent="OhJsWhGwU4XOWmIwv3Eu-3">
          <mxGeometry x="600" y="100" width="120" height="30" as="geometry" />
        </mxCell>
        <mxCell id="OhJsWhGwU4XOWmIwv3Eu-30" value="" style="edgeStyle=orthogonalEdgeStyle;rounded=0;orthogonalLoop=1;jettySize=auto;html=1;" edge="1" parent="OhJsWhGwU4XOWmIwv3Eu-3" source="OhJsWhGwU4XOWmIwv3Eu-10" target="OhJsWhGwU4XOWmIwv3Eu-29">
          <mxGeometry relative="1" as="geometry" />
        </mxCell>
        <mxCell id="OhJsWhGwU4XOWmIwv3Eu-31" value="Add Comment" style="rounded=0;whiteSpace=wrap;html=1;fillColor=#d5e8d4;strokeColor=#82b366;" vertex="1" parent="OhJsWhGwU4XOWmIwv3Eu-3">
          <mxGeometry x="600" y="130" width="120" height="30" as="geometry" />
        </mxCell>
        <mxCell id="OhJsWhGwU4XOWmIwv3Eu-32" value="" style="edgeStyle=orthogonalEdgeStyle;rounded=0;orthogonalLoop=1;jettySize=auto;html=1;" edge="1" parent="OhJsWhGwU4XOWmIwv3Eu-3" source="OhJsWhGwU4XOWmIwv3Eu-10" target="OhJsWhGwU4XOWmIwv3Eu-31">
          <mxGeometry relative="1" as="geometry" />
        </mxCell>
        <mxCell id="OhJsWhGwU4XOWmIwv3Eu-36" value="" style="edgeStyle=orthogonalEdgeStyle;rounded=0;orthogonalLoop=1;jettySize=auto;html=1;" edge="1" parent="OhJsWhGwU4XOWmIwv3Eu-3" source="OhJsWhGwU4XOWmIwv3Eu-33" target="OhJsWhGwU4XOWmIwv3Eu-35">
          <mxGeometry relative="1" as="geometry" />
        </mxCell>
        <mxCell id="OhJsWhGwU4XOWmIwv3Eu-33" value="Dropdown" style="shape=step;perimeter=stepPerimeter;whiteSpace=wrap;html=1;fixedSize=1;size=-20;fillColor=#e1d5e7;strokeColor=#9673a6;" vertex="1" parent="OhJsWhGwU4XOWmIwv3Eu-3">
          <mxGeometry x="120" y="290" width="120" height="20" as="geometry" />
        </mxCell>
        <mxCell id="OhJsWhGwU4XOWmIwv3Eu-34" value="" style="edgeStyle=orthogonalEdgeStyle;rounded=0;orthogonalLoop=1;jettySize=auto;html=1;" edge="1" parent="OhJsWhGwU4XOWmIwv3Eu-3" source="OhJsWhGwU4XOWmIwv3Eu-27" target="OhJsWhGwU4XOWmIwv3Eu-33">
          <mxGeometry relative="1" as="geometry" />
        </mxCell>
        <mxCell id="OhJsWhGwU4XOWmIwv3Eu-35" value="Disney+" style="shape=step;perimeter=stepPerimeter;whiteSpace=wrap;html=1;fixedSize=1;size=-20;fillColor=#e1d5e7;strokeColor=#9673a6;" vertex="1" parent="OhJsWhGwU4XOWmIwv3Eu-3">
          <mxGeometry x="50" y="320" width="120" height="20" as="geometry" />
        </mxCell>
        <mxCell id="OhJsWhGwU4XOWmIwv3Eu-37" value="Prime" style="shape=step;perimeter=stepPerimeter;whiteSpace=wrap;html=1;fixedSize=1;size=-20;fillColor=#e1d5e7;strokeColor=#9673a6;" vertex="1" parent="OhJsWhGwU4XOWmIwv3Eu-3">
          <mxGeometry x="50" y="340" width="120" height="20" as="geometry" />
        </mxCell>
        <mxCell id="OhJsWhGwU4XOWmIwv3Eu-38" value="Hulu" style="shape=step;perimeter=stepPerimeter;whiteSpace=wrap;html=1;fixedSize=1;size=-20;fillColor=#e1d5e7;strokeColor=#9673a6;" vertex="1" parent="OhJsWhGwU4XOWmIwv3Eu-3">
          <mxGeometry x="50" y="360" width="120" height="20" as="geometry" />
        </mxCell>
        <mxCell id="OhJsWhGwU4XOWmIwv3Eu-39" value="Netflix" style="shape=step;perimeter=stepPerimeter;whiteSpace=wrap;html=1;fixedSize=1;size=-20;fillColor=#e1d5e7;strokeColor=#9673a6;" vertex="1" parent="OhJsWhGwU4XOWmIwv3Eu-3">
          <mxGeometry x="50" y="380" width="120" height="20" as="geometry" />
        </mxCell>
        <mxCell id="OhJsWhGwU4XOWmIwv3Eu-22" value="" style="rounded=0;whiteSpace=wrap;html=1;" vertex="1" parent="1">
          <mxGeometry x="370" y="240" width="120" height="60" as="geometry" />
        </mxCell>
      </root>
    </mxGraphModel>
  </diagram>
</mxfile>
